<?xml version="1.0" standalone="no"?>
<!DOCTYPE svg PUBLIC "-//W3C//DTD SVG 20010904//EN"
 "http://www.w3.org/TR/2001/REC-SVG-20010904/DTD/svg10.dtd">
<svg version="1.0" xmlns="http://www.w3.org/2000/svg"
 width="1216.000000pt" height="1216.000000pt" viewBox="0 0 1216.000000 1216.000000"
 preserveAspectRatio="xMidYMid meet">
<metadata>
Created by potrace 1.14, written by Peter Selinger 2001-2017
</metadata>
<g transform="translate(0.000000,1216.000000) scale(0.100000,-0.100000)"
fill="#000000" stroke="none">
<path d="M6829 12155 c-2 -2 -40 -6 -84 -9 -44 -3 -89 -7 -100 -9 -11 -3 -47
-8 -80 -13 -33 -4 -62 -8 -65 -9 -3 -1 -32 -7 -65 -14 -33 -7 -94 -22 -135
-32 -41 -11 -84 -22 -95 -25 -27 -7 -37 -10 -55 -17 -8 -3 -53 -17 -100 -32
-47 -14 -92 -29 -100 -32 -8 -4 -17 -7 -20 -8 -3 -1 -18 -7 -35 -14 -16 -6
-55 -22 -85 -34 -30 -12 -57 -24 -60 -27 -3 -3 -25 -14 -50 -25 -25 -10 -57
-27 -72 -37 -14 -10 -29 -18 -32 -18 -10 0 -111 -64 -114 -72 -2 -4 -10 -8
-17 -8 -8 0 -20 -6 -27 -12 -7 -7 -56 -42 -108 -77 -52 -36 -97 -67 -100 -71
-4 -5 -67 -56 -124 -100 -10 -8 -31 -27 -46 -42 -15 -16 -30 -28 -33 -28 -15
0 -238 -234 -310 -325 -26 -33 -58 -73 -72 -90 -13 -16 -25 -36 -25 -42 0 -7
-4 -13 -10 -13 -5 0 -10 -6 -10 -14 0 -8 -4 -16 -8 -18 -11 -4 -122 -192 -122
-206 0 -5 -7 -15 -15 -22 -9 -7 -13 -15 -11 -18 3 -3 -3 -17 -13 -31 -10 -14
-39 -78 -65 -141 -26 -63 -51 -124 -56 -135 -11 -27 -61 -176 -65 -195 -2 -8
-10 -42 -19 -75 -16 -57 -20 -73 -30 -128 -18 -92 -26 -138 -31 -176 -3 -23
-8 -47 -11 -52 -3 -5 0 -9 6 -9 6 0 8 -5 4 -11 -4 -6 -8 -30 -10 -53 -5 -56
-4 -351 0 -406 9 -103 23 -202 41 -290 3 -14 8 -38 11 -54 2 -16 7 -32 9 -36
2 -4 7 -20 9 -37 7 -37 66 -219 95 -292 47 -118 132 -294 144 -299 4 -2 7 -9
7 -15 0 -23 199 -334 243 -379 7 -7 21 -24 30 -38 38 -55 208 -235 302 -320
130 -117 420 -327 470 -340 6 -1 21 -10 35 -20 56 -39 249 -130 377 -179 150
-56 193 -71 193 -65 0 4 6 2 13 -3 10 -9 144 -48 199 -58 11 -2 29 -7 40 -11
11 -3 30 -7 41 -9 12 -1 41 -7 64 -13 23 -5 44 -7 47 -5 2 3 10 2 17 -3 7 -4
24 -8 38 -10 14 -1 49 -5 76 -9 74 -9 161 -16 241 -19 39 -2 75 -6 81 -9 6 -4
13 -4 16 0 6 6 89 8 112 3 6 -1 12 -1 15 0 3 1 41 3 85 6 101 5 170 11 215 18
19 3 54 8 77 10 22 2 45 6 50 9 4 2 31 7 58 11 28 3 74 12 103 20 29 8 55 15
57 15 21 3 75 18 160 44 55 17 103 32 108 33 4 1 9 3 12 4 3 1 8 3 13 5 14 4
105 39 187 73 49 20 285 140 340 172 261 155 544 396 725 619 19 24 40 48 45
55 6 6 32 40 58 76 26 36 51 70 55 75 20 25 82 126 82 134 0 5 4 11 9 13 12 4
174 318 164 318 -4 0 -3 4 2 8 6 4 18 30 29 57 31 83 67 189 71 205 1 8 10 38
19 65 9 28 18 61 20 75 3 14 5 26 7 28 1 1 2 10 3 20 1 9 5 26 8 37 14 43 37
208 43 315 5 78 5 356 0 410 -4 44 -8 74 -20 175 -5 39 -37 192 -59 280 -9 36
-38 133 -45 150 -5 11 -21 54 -36 95 -38 103 -144 321 -205 420 -27 45 -50 86
-50 91 0 5 -4 9 -10 9 -5 0 -10 6 -10 14 0 8 -4 16 -8 18 -5 2 -30 35 -56 73
-27 39 -54 75 -60 80 -6 6 -22 25 -35 44 -33 46 -99 119 -207 226 -89 88 -123
120 -200 180 -20 17 -42 35 -48 40 -6 6 -28 21 -48 34 -21 12 -38 27 -38 32 0
5 -5 9 -11 9 -6 0 -25 11 -43 25 -18 14 -38 25 -44 25 -6 0 -12 3 -14 8 -4 9
-107 72 -118 72 -5 0 -10 4 -12 8 -6 16 -244 135 -368 185 -14 5 -34 13 -45
18 -47 19 -207 70 -298 94 -127 34 -139 37 -159 37 -10 -1 -20 4 -23 9 -4 5
-10 7 -15 4 -5 -3 -27 -1 -47 4 -21 5 -58 12 -83 15 -73 9 -133 17 -165 22
-35 6 -511 14 -516 9z"/>
<path d="M6897 6074 c-1 -1 -65 -4 -142 -8 -77 -4 -159 -9 -182 -11 -24 -3
-64 -7 -90 -10 -107 -10 -149 -15 -173 -20 -14 -3 -43 -7 -65 -10 -22 -3 -51
-8 -65 -10 -14 -3 -43 -8 -65 -11 -22 -3 -44 -7 -50 -9 -5 -1 -28 -5 -50 -10
-22 -4 -49 -10 -60 -12 -11 -3 -29 -6 -40 -8 -11 -2 -56 -12 -100 -23 -44 -12
-91 -23 -105 -26 -14 -2 -81 -21 -150 -41 -69 -20 -129 -38 -135 -39 -5 -2
-19 -6 -30 -10 -11 -5 -37 -14 -57 -22 -21 -8 -38 -11 -38 -7 0 4 -5 2 -12 -5
-7 -7 -18 -12 -24 -12 -7 0 -25 -5 -41 -12 -15 -6 -30 -12 -33 -12 -3 -1 -9
-4 -15 -7 -16 -10 -90 -33 -91 -28 0 2 -9 -3 -18 -11 -10 -8 -24 -15 -32 -16
-8 -1 -37 -14 -66 -28 -29 -14 -56 -26 -61 -26 -21 0 -471 -222 -498 -246 -8
-8 -19 -14 -23 -14 -3 0 -47 -25 -97 -55 -50 -30 -94 -55 -99 -55 -4 0 -10 -3
-12 -7 -4 -11 -85 -63 -97 -63 -5 0 -11 -4 -13 -8 -1 -5 -30 -26 -63 -47 -33
-22 -62 -42 -65 -45 -3 -3 -21 -17 -40 -30 -46 -31 -184 -143 -188 -152 -2 -5
-8 -8 -13 -8 -5 0 -22 -12 -37 -27 -15 -16 -61 -57 -102 -93 -41 -36 -94 -84
-118 -107 -24 -24 -48 -43 -53 -43 -5 0 -9 -7 -9 -15 0 -8 -4 -15 -8 -15 -7 0
-126 -117 -253 -248 -30 -32 -118 -134 -169 -198 -133 -166 -321 -447 -437
-653 -79 -142 -230 -449 -238 -486 -1 -5 -7 -21 -12 -35 -6 -14 -21 -50 -32
-80 -12 -30 -25 -64 -30 -75 -11 -24 -52 -144 -56 -159 -1 -6 -7 -24 -13 -39
-7 -16 -12 -36 -12 -46 0 -10 -3 -21 -7 -25 -4 -3 -8 -12 -9 -19 -1 -7 -7 -32
-15 -57 -7 -25 -13 -49 -15 -55 -1 -5 -7 -30 -14 -55 -7 -25 -14 -56 -16 -70
-3 -14 -7 -32 -11 -40 -3 -8 -7 -22 -8 -30 -5 -31 -16 -86 -22 -115 -4 -16 -7
-32 -8 -35 -1 -3 -4 -27 -9 -53 -4 -27 -9 -56 -10 -65 -2 -10 -6 -37 -10 -62
-3 -25 -9 -63 -12 -85 -4 -22 -7 -61 -8 -87 0 -27 -3 -48 -6 -48 -14 0 -20
-442 -7 -550 4 -36 14 -89 21 -118 8 -29 14 -53 14 -55 -1 -3 22 -78 31 -102
46 -117 126 -260 186 -334 38 -47 130 -145 155 -166 14 -11 33 -28 44 -39 58
-58 345 -226 411 -241 5 -1 17 -5 25 -8 8 -3 57 -20 108 -36 l93 -31 3610 0
3609 0 0 2508 0 2508 -47 36 c-27 19 -84 59 -128 89 -44 29 -82 56 -85 59 -5
5 -26 17 -75 44 -11 6 -29 18 -40 27 -11 9 -45 30 -75 46 -30 17 -84 47 -120
67 -36 20 -72 41 -80 46 -74 42 -363 180 -444 212 -27 10 -68 27 -90 37 -23
10 -88 35 -146 56 -58 20 -114 41 -125 46 -48 19 -240 77 -345 104 -8 3 -51
14 -95 26 -141 37 -513 111 -544 107 -3 0 -8 0 -11 2 -10 3 -65 10 -115 15
-27 2 -50 4 -50 5 0 4 -181 20 -295 26 -88 5 -429 11 -433 8z"/>
</g>
</svg>
